<svg width="376" height="775" viewBox="0 0 376 775" fill="none" xmlns="http://www.w3.org/2000/svg">
<rect width="376" height="775" rx="57" fill="#182524"/>
<g clip-path="url(#clip0_2_131)">
<path d="M376 189.221H0V591.818H376V189.221Z" fill="#182524"/>
<g clip-path="url(#clip1_2_131)">
<g clip-path="url(#clip2_2_131)">
<g clip-path="url(#clip3_2_131)">
<g clip-path="url(#clip4_2_131)">
<g clip-path="url(#clip5_2_131)">
<g clip-path="url(#clip6_2_131)">
<g clip-path="url(#clip7_2_131)">
<g clip-path="url(#clip8_2_131)">
<path d="M67.2539 406.425V405.031H83.2304L74.0266 377.93L64.3452 406.425H62.9559L74.0266 373.839L85.0972 406.425H67.2539ZM91.4791 373.886V406.425H90.1766V373.886H91.4791ZM101.16 403.59C99.5975 401.389 98.816 397.841 98.816 392.945C98.816 388.048 99.5975 384.5 101.16 382.3C102.718 380.099 105.305 378.999 108.923 378.999C112.541 378.999 115.146 380.068 116.737 382.207L115.791 383.136C114.518 381.308 112.228 380.394 108.923 380.394C107.476 380.394 106.263 380.555 105.285 380.877C104.301 381.206 103.395 381.81 102.567 382.69C101.739 383.576 101.126 384.862 100.726 386.548C100.321 388.24 100.118 390.372 100.118 392.945C100.118 395.517 100.321 397.646 100.726 399.332C101.126 401.024 101.739 402.31 102.567 403.19C103.395 404.076 104.301 404.681 105.285 405.003C106.263 405.331 107.476 405.496 108.923 405.496C112.228 405.496 114.518 404.581 115.791 402.753L116.737 403.683C115.146 405.821 112.541 406.89 108.923 406.89C105.305 406.89 102.718 405.79 101.16 403.59ZM125.507 406.425V405.031H139.66L130.76 382.578L121.296 406.425H119.907L130.76 378.999L141.614 406.425H125.507ZM149.862 406.425H146.563V379.464H149.862C154.146 379.464 157.561 380.673 160.108 383.09C162.655 385.507 163.929 388.792 163.929 392.945C163.929 397.097 162.655 400.382 160.108 402.8C157.561 405.217 154.146 406.425 149.862 406.425ZM147.865 405.031H149.862C153.77 405.031 156.875 403.962 159.179 401.823C161.477 399.685 162.626 396.725 162.626 392.945C162.626 389.164 161.477 386.204 159.179 384.066C156.875 381.928 153.77 380.859 149.862 380.859H147.865V405.031ZM186.461 402.753L187.416 403.683C185.824 405.821 183.219 406.89 179.601 406.89C175.983 406.89 173.393 405.79 171.83 403.59C170.267 401.389 169.486 397.841 169.486 392.945C169.486 388.048 170.267 384.5 171.83 382.3C173.393 380.099 175.983 378.999 179.601 378.999C183.798 378.999 186.649 380.471 188.154 383.415L177.517 392.945H175.477L186.461 383.136C185.187 381.308 182.901 380.394 179.601 380.394C178.154 380.394 176.938 380.555 175.954 380.877C174.97 381.206 174.064 381.81 173.237 382.69C172.415 383.576 171.801 384.862 171.396 386.548C170.991 388.24 170.788 390.372 170.788 392.945C170.788 395.517 170.991 397.646 171.396 399.332C171.801 401.024 172.415 402.31 173.237 403.19C174.064 404.076 174.97 404.681 175.954 405.003C176.938 405.331 178.154 405.496 179.601 405.496C182.901 405.496 185.187 404.581 186.461 402.753ZM198.443 406.379V405.031H215.201V381.416L205.433 391.876L195.664 381.416V406.425L194.362 406.379V379.464H195.664L205.433 389.923L215.201 379.464H216.503V406.425L198.443 406.379ZM224.743 406.425V379.464H226.046V406.425H224.743ZM236.595 406.425V405.031H250.748L241.848 382.578L232.384 406.425H230.995L241.848 378.999L252.702 406.425H236.595Z" fill="white"/>
</g>
</g>
</g>
</g>
<g clip-path="url(#clip9_2_131)">
<g clip-path="url(#clip10_2_131)">
<path d="M299.046 396.162L294.842 398.655C292.257 400.187 289.328 400.999 286.372 400.999C283.419 400.999 280.49 400.188 277.903 398.655L272.747 395.597C272.812 398.159 272.711 400.882 271.736 403.054C271.467 403.647 270.929 404.184 270.939 404.897C270.95 405.886 272.001 406.053 272.757 405.902C272.757 405.902 277.214 404.987 283.381 411.459C283.994 412.102 284.598 412.707 285.428 413.022C287.052 413.639 288.26 412.573 289.376 411.448C290.135 410.683 290.982 410.019 291.833 409.373C293.876 407.827 296.47 405.883 299.073 405.836C299.073 405.836 302.431 406.621 300.477 403.287C300.477 403.287 299.582 400.199 299.046 396.162Z" fill="white"/>
<path d="M265.857 393.677L264.88 399.953V408.321H268.788V399.953L267.811 393.677V387.886L265.857 386.727V393.677Z" fill="white"/>
<path d="M311.87 380.569L292.95 369.348C288.855 366.919 283.89 366.919 279.798 369.348L260.875 380.569C259.704 381.264 259.704 383.076 260.875 383.773L265.857 386.727V382.171H288.326V384.263H267.811V387.886L279.797 394.995C283.89 397.421 288.854 397.421 292.949 394.995L311.869 383.774C313.043 383.076 313.043 381.265 311.87 380.569Z" fill="white"/>
</g>
</g>
</g>
</g>
</g>
</g>
</g>
<path fill-rule="evenodd" clip-rule="evenodd" d="M374.301 52.4729C374.301 63.1674 374.301 713.032 374.301 722.527C374.301 751.512 350.713 775 321.729 775H55.5705C26.4859 775 2.99841 751.512 2.99841 722.527C2.99841 713.032 2.99841 63.1674 2.99841 52.4729C2.99841 23.4879 26.4859 0 55.5705 0H321.729C350.713 0 374.301 23.4879 374.301 52.4729ZM369.204 54.3719C369.204 27.086 347.115 5.09737 319.93 5.09737H57.3695C30.1839 5.09737 8.09571 27.086 8.09571 54.3719C8.09571 64.9665 8.09571 711.233 8.09571 720.628C8.09571 747.914 30.1839 769.903 57.3695 769.903H319.93C347.115 769.903 369.204 747.914 369.204 720.628C369.204 711.233 369.204 64.9665 369.204 54.3719Z" fill="black"/>
<g style="mix-blend-mode:screen" opacity="0.7">
<path d="M16.991 18.0907C27.6853 8.49561 41.5779 1.09943 57.7693 1.29933L310.235 1.79907C343.118 3.79804 372.002 21.7888 373.102 59.969C373.102 64.1669 375.4 27.9856 351.913 12.0938C340.719 4.09789 324.228 0.599687 314.333 0.39979C298.141 0.0999446 84.2552 -0.199901 58.0691 0.39979C36.1808 0.899532 25.7863 9.79494 16.991 18.0907Z" fill="white"/>
</g>
<path fill-rule="evenodd" clip-rule="evenodd" d="M369.204 54.3719C369.204 64.9664 369.204 711.233 369.204 720.628C369.204 747.914 347.115 769.903 319.93 769.903H57.3695C30.1839 769.903 8.0957 747.914 8.0957 720.628C8.0957 711.233 8.0957 64.9664 8.0957 54.3719C8.0957 27.086 30.1839 5.09735 57.3695 5.09735H319.93C347.115 5.09735 369.204 27.086 369.204 54.3719ZM366.605 55.7712C366.605 29.1849 345.017 7.59606 318.431 7.59606H58.8687C32.2828 7.59606 10.6943 29.1849 10.6943 55.7712C10.6943 66.4657 10.6943 709.734 10.6943 719.229C10.6943 745.815 32.2828 767.404 58.8687 767.404H318.431C345.017 767.404 366.605 745.815 366.605 719.229C366.605 709.834 366.605 66.3657 366.605 55.7712Z" fill="#1A1A1A"/>
<path fill-rule="evenodd" clip-rule="evenodd" d="M319.93 770.203H57.3695C30.084 770.203 7.89581 748.014 7.89581 720.628V54.3719C7.89581 26.9861 30.084 4.79752 57.3695 4.79752H319.93C347.215 4.79752 369.404 26.9861 369.404 54.3719V720.628C369.404 748.014 347.215 770.203 319.93 770.203ZM57.3695 5.29726C30.3839 5.29726 8.39555 27.2859 8.39555 54.3719V720.628C8.39555 747.714 30.3839 769.703 57.3695 769.703H319.93C346.916 769.703 368.904 747.714 368.904 720.628V54.3719C368.904 27.2859 346.916 5.29726 319.93 5.29726H57.3695ZM318.331 767.604H58.7688C32.083 767.604 10.3945 745.915 10.3945 719.229V55.7712C10.3945 29.085 32.083 7.39617 58.7688 7.39617H318.331C345.117 7.39617 366.805 29.085 366.805 55.7712V719.229C366.805 745.915 345.117 767.604 318.331 767.604ZM58.7688 7.89592C32.3828 7.89592 10.8942 29.3848 10.8942 55.7712V719.229C10.8942 745.615 32.3828 767.104 58.7688 767.104H318.331C344.817 767.104 366.305 745.615 366.305 719.229V55.7712C366.305 29.3848 344.817 7.89592 318.331 7.89592H58.7688Z" fill="black"/>
<g style="mix-blend-mode:screen" opacity="0.5">
<path d="M16.991 756.909C27.6853 766.504 41.5779 773.901 57.7693 773.701L310.235 773.201C343.118 771.202 372.002 753.211 373.102 715.031C373.102 710.833 375.4 747.014 351.913 762.906C340.719 770.902 324.228 774.4 314.333 774.6C298.141 774.9 84.2552 775.2 58.0691 774.6C36.1808 774.1 25.7863 765.205 16.991 756.909Z" fill="white"/>
</g>
<path d="M374.301 244.974V162.116H375.5V244.974H374.301Z" fill="url(#paint0_linear_2_131)"/>
<path d="M375.5 244.974V162.116L376 162.816C375.7 168.813 375.8 238.377 376 244.274L375.5 244.974Z" fill="url(#paint1_linear_2_131)"/>
<path d="M1.69911 217.788V162.116H0.499741V217.788H1.69911Z" fill="url(#paint2_linear_2_131)"/>
<path d="M0.499734 217.788V162.116L0 162.816C0.299841 168.813 0.199894 211.191 0 217.088L0.499734 217.788Z" fill="url(#paint3_linear_2_131)"/>
<path d="M2.99841 217.888H1.69911V162.116H2.99841V217.888Z" fill="url(#paint4_linear_2_131)"/>
<path d="M1.69911 287.751V231.98H0.499741V287.751H1.69911Z" fill="url(#paint5_linear_2_131)"/>
<path d="M0.499734 287.751V231.98L0 232.68C0.299841 238.677 0.199894 281.055 0 286.952L0.499734 287.751Z" fill="url(#paint6_linear_2_131)"/>
<path d="M2.99841 287.751H1.69911V231.98H2.99841V287.751Z" fill="url(#paint7_linear_2_131)"/>
<path d="M1.69911 126.335V96.1504H0.499741V126.335H1.69911Z" fill="url(#paint8_linear_2_131)"/>
<path d="M0.499734 126.335V96.1504L0 96.85C0.299841 102.747 0.199894 119.738 0 125.635L0.499734 126.335Z" fill="url(#paint9_linear_2_131)"/>
<path d="M2.99841 126.335H1.69911V96.1504H2.99841V126.335Z" fill="url(#paint10_linear_2_131)"/>
<path d="M206.99 773.701H170.309C169.51 773.701 168.91 773.701 168.61 773.901L167.011 774.6C166.711 774.8 167.511 775 168.61 775H208.589C209.788 775 210.588 774.8 210.188 774.6L208.589 773.901C208.389 773.701 207.789 773.701 206.99 773.701Z" fill="black"/>
<path d="M221.482 42.9778H154.518C147.022 42.9778 140.925 36.881 140.925 29.2849C140.925 21.7888 147.022 15.6919 154.518 15.6919H221.482C228.978 15.6919 235.075 21.7888 235.075 29.2849C235.075 36.881 228.978 42.9778 221.482 42.9778Z" fill="black"/>
<path d="M223.581 29.2849C223.581 32.5832 220.983 35.2818 217.684 35.2818C214.386 35.2818 211.688 32.5832 211.688 29.2849C211.688 25.9866 214.386 23.3879 217.684 23.3879C220.983 23.3879 223.581 25.9866 223.581 29.2849Z" fill="url(#paint11_linear_2_131)"/>
<path d="M213.786 33.2828C214.386 33.8825 215.086 34.3822 215.985 34.5821C215.785 33.5826 215.286 32.7831 215.186 31.6836C214.286 31.4837 212.987 31.2838 212.387 30.984C212.687 31.7836 213.087 32.5832 213.786 33.2828ZM212.387 30.984C212.987 31.2838 214.286 31.4837 215.186 31.6836C215.086 29.7846 214.986 27.7856 215.286 25.8866C214.386 26.0865 213.586 26.1865 212.787 26.5863C212.087 27.9855 211.887 29.5847 212.387 30.984ZM212.787 26.5863C213.586 26.1865 214.386 26.0865 215.286 25.8866C215.385 25.2869 215.885 24.4873 215.985 23.9876C215.086 24.2874 214.386 24.7872 213.686 25.3869C213.353 25.72 213.053 26.1198 212.787 26.5863ZM215.985 34.5821C217.185 34.9819 218.384 34.9819 219.583 34.5821C219.883 33.7825 220.083 32.7831 220.183 31.6836C218.984 31.8835 216.385 31.7836 215.186 31.6836C215.286 32.7831 215.785 33.5826 215.985 34.5821ZM215.186 31.6836C216.385 31.7836 218.984 31.8835 220.183 31.6836C220.383 29.5847 220.383 27.3859 219.983 25.7867C218.584 25.5868 216.585 25.6867 215.286 25.8866C214.986 27.7856 215.086 29.7846 215.186 31.6836ZM215.286 25.8866C216.585 25.6867 218.584 25.5868 219.983 25.7867C219.883 25.2869 219.783 24.4873 219.583 24.0875C218.384 23.6877 217.185 23.6878 215.985 23.9876C215.885 24.4873 215.385 25.2869 215.286 25.8866ZM219.583 34.5821C220.283 34.2823 220.982 33.7825 221.582 33.2828C222.282 32.5832 222.682 31.7836 222.981 30.984C222.282 31.2838 221.082 31.4837 220.183 31.6836C220.083 32.7831 219.883 33.7825 219.583 34.5821ZM220.183 31.6836C221.082 31.4837 222.282 31.2838 222.981 30.984C223.381 29.5847 223.281 27.9855 222.482 26.5863C221.782 26.1865 220.983 25.9866 219.983 25.7867C220.383 27.3859 220.383 29.5847 220.183 31.6836ZM219.983 25.7867C220.983 25.9866 221.782 26.1865 222.482 26.5863C222.282 26.1198 221.982 25.72 221.582 25.3869C220.982 24.7872 220.283 24.3874 219.583 24.0875C219.783 24.4873 219.883 25.2869 219.983 25.7867Z" fill="url(#paint12_linear_2_131)"/>
<path d="M214.286 29.2849C214.286 27.4858 215.785 25.8866 217.684 25.8866C219.583 25.8866 221.082 27.4858 221.082 29.2849C221.082 31.1839 219.583 32.6831 217.684 32.6831C215.785 32.6831 214.286 31.1839 214.286 29.2849Z" fill="url(#paint13_linear_2_131)"/>
<path d="M220.683 29.2849C220.683 30.984 219.283 32.2833 217.684 32.2833C215.985 32.2833 214.686 30.984 214.686 29.2849C214.686 27.6857 215.985 26.3864 217.684 26.3864C219.283 26.3864 220.683 27.6857 220.683 29.2849Z" fill="url(#paint14_linear_2_131)"/>
<path style="mix-blend-mode:multiply" d="M220.683 29.2849C220.683 30.984 219.283 32.2833 217.684 32.2833C215.985 32.2833 214.686 30.984 214.686 29.2849C214.686 27.6857 215.985 26.3864 217.684 26.3864C219.283 26.3864 220.683 27.6857 220.683 29.2849Z" fill="url(#paint15_radial_2_131)"/>
<path style="mix-blend-mode:screen" d="M220.383 30.884C220.383 30.2843 219.883 29.7846 219.283 29.7846C218.684 29.7846 218.284 30.2843 218.284 30.884C218.284 31.4837 218.684 31.8835 219.283 31.8835C219.883 31.8835 220.383 31.4837 220.383 30.884Z" fill="url(#paint16_radial_2_131)"/>
<defs>
<linearGradient id="paint0_linear_2_131" x1="375.452" y1="162.097" x2="375.452" y2="245.015" gradientUnits="userSpaceOnUse">
<stop stop-color="#3B3B3B"/>
<stop offset="0.019" stop-color="#E6E6E6"/>
<stop offset="0.038" stop-color="#333333"/>
<stop offset="0.082"/>
<stop offset="0.105" stop-color="#666666"/>
<stop offset="0.905" stop-color="#313131"/>
<stop offset="0.939"/>
<stop offset="0.965" stop-color="#333333"/>
<stop offset="0.983" stop-color="#CCCCCC"/>
<stop offset="1" stop-color="#2C2C2C"/>
</linearGradient>
<linearGradient id="paint1_linear_2_131" x1="376.047" y1="162.111" x2="376.047" y2="245.017" gradientUnits="userSpaceOnUse">
<stop stop-color="#A0A0A0"/>
<stop offset="0.064" stop-color="#333333"/>
<stop offset="0.186" stop-color="#8A8A8A"/>
<stop offset="0.806" stop-color="#8A8A8A"/>
<stop offset="0.919" stop-color="#333333"/>
<stop offset="1" stop-color="#A0A0A0"/>
</linearGradient>
<linearGradient id="paint2_linear_2_131" x1="0.547716" y1="162.097" x2="0.547716" y2="217.829" gradientUnits="userSpaceOnUse">
<stop stop-color="#3B3B3B"/>
<stop offset="0.019" stop-color="#E6E6E6"/>
<stop offset="0.038" stop-color="#333333"/>
<stop offset="0.082"/>
<stop offset="0.105" stop-color="#666666"/>
<stop offset="0.905" stop-color="#313131"/>
<stop offset="0.939"/>
<stop offset="0.965" stop-color="#333333"/>
<stop offset="0.983" stop-color="#CCCCCC"/>
<stop offset="1" stop-color="#2C2C2C"/>
</linearGradient>
<linearGradient id="paint3_linear_2_131" x1="-0.046975" y1="162.111" x2="-0.046975" y2="217.831" gradientUnits="userSpaceOnUse">
<stop stop-color="#A0A0A0"/>
<stop offset="0.064" stop-color="#333333"/>
<stop offset="0.186" stop-color="#8A8A8A"/>
<stop offset="0.806" stop-color="#8A8A8A"/>
<stop offset="0.919" stop-color="#333333"/>
<stop offset="1" stop-color="#A0A0A0"/>
</linearGradient>
<linearGradient id="paint4_linear_2_131" x1="-1216.37" y1="217.846" x2="-1216.37" y2="162.111" gradientUnits="userSpaceOnUse">
<stop stop-color="#353540"/>
<stop offset="0.053"/>
<stop offset="0.518" stop-color="#333333"/>
<stop offset="0.965"/>
<stop offset="1" stop-color="#262C31"/>
</linearGradient>
<linearGradient id="paint5_linear_2_131" x1="0.547716" y1="231.973" x2="0.547716" y2="287.704" gradientUnits="userSpaceOnUse">
<stop stop-color="#3B3B3B"/>
<stop offset="0.019" stop-color="#E6E6E6"/>
<stop offset="0.038" stop-color="#333333"/>
<stop offset="0.082"/>
<stop offset="0.105" stop-color="#666666"/>
<stop offset="0.905" stop-color="#313131"/>
<stop offset="0.939"/>
<stop offset="0.965" stop-color="#333333"/>
<stop offset="0.983" stop-color="#CCCCCC"/>
<stop offset="1" stop-color="#2C2C2C"/>
</linearGradient>
<linearGradient id="paint6_linear_2_131" x1="-0.046975" y1="231.988" x2="-0.046975" y2="287.707" gradientUnits="userSpaceOnUse">
<stop stop-color="#A0A0A0"/>
<stop offset="0.064" stop-color="#333333"/>
<stop offset="0.186" stop-color="#8A8A8A"/>
<stop offset="0.806" stop-color="#8A8A8A"/>
<stop offset="0.919" stop-color="#333333"/>
<stop offset="1" stop-color="#A0A0A0"/>
</linearGradient>
<linearGradient id="paint7_linear_2_131" x1="-1216.37" y1="287.722" x2="-1216.37" y2="231.988" gradientUnits="userSpaceOnUse">
<stop stop-color="#353540"/>
<stop offset="0.053"/>
<stop offset="0.518" stop-color="#333333"/>
<stop offset="0.965"/>
<stop offset="1" stop-color="#262C31"/>
</linearGradient>
<linearGradient id="paint8_linear_2_131" x1="0.547716" y1="96.1144" x2="0.547716" y2="126.359" gradientUnits="userSpaceOnUse">
<stop stop-color="#3B3B3B"/>
<stop offset="0.019" stop-color="#E6E6E6"/>
<stop offset="0.038" stop-color="#333333"/>
<stop offset="0.082"/>
<stop offset="0.105" stop-color="#666666"/>
<stop offset="0.905" stop-color="#313131"/>
<stop offset="0.939"/>
<stop offset="0.965" stop-color="#333333"/>
<stop offset="0.983" stop-color="#CCCCCC"/>
<stop offset="1" stop-color="#2C2C2C"/>
</linearGradient>
<linearGradient id="paint9_linear_2_131" x1="-0.046975" y1="96.1294" x2="-0.046975" y2="126.362" gradientUnits="userSpaceOnUse">
<stop stop-color="#A0A0A0"/>
<stop offset="0.064" stop-color="#333333"/>
<stop offset="0.186" stop-color="#8A8A8A"/>
<stop offset="0.806" stop-color="#8A8A8A"/>
<stop offset="0.919" stop-color="#333333"/>
<stop offset="1" stop-color="#A0A0A0"/>
</linearGradient>
<linearGradient id="paint10_linear_2_131" x1="-356.58" y1="126.376" x2="-356.58" y2="96.1284" gradientUnits="userSpaceOnUse">
<stop stop-color="#353540"/>
<stop offset="0.053"/>
<stop offset="0.518" stop-color="#333333"/>
<stop offset="0.965"/>
<stop offset="1" stop-color="#262C31"/>
</linearGradient>
<linearGradient id="paint11_linear_2_131" x1="211.719" y1="34.895" x2="211.719" y2="23.178" gradientUnits="userSpaceOnUse">
<stop stop-color="#666666"/>
<stop offset="1" stop-color="#010104"/>
</linearGradient>
<linearGradient id="paint12_linear_2_131" x1="215.35" y1="25.9836" x2="220.176" y2="31.594" gradientUnits="userSpaceOnUse">
<stop stop-color="#171919"/>
<stop offset="1" stop-color="#4E4F51"/>
</linearGradient>
<linearGradient id="paint13_linear_2_131" x1="221.065" y1="26.1265" x2="221.065" y2="32.8211" gradientUnits="userSpaceOnUse">
<stop stop-color="#0B131C"/>
<stop offset="1" stop-color="#354039"/>
</linearGradient>
<linearGradient id="paint14_linear_2_131" x1="217.665" y1="35.2638" x2="211.718" y2="29.317" gradientUnits="userSpaceOnUse">
<stop stop-color="#231F20"/>
<stop offset="0.785" stop-color="#0095EE"/>
<stop offset="1" stop-color="#231F20"/>
</linearGradient>
<radialGradient id="paint15_radial_2_131" cx="0" cy="0" r="1" gradientUnits="userSpaceOnUse" gradientTransform="translate(217.665 29.3169) scale(2.97342 2.97347)">
<stop stop-color="#231F20"/>
<stop offset="0.733" stop-color="#00ADEE"/>
<stop offset="1" stop-color="#231F20"/>
</radialGradient>
<radialGradient id="paint16_radial_2_131" cx="0" cy="0" r="1" gradientUnits="userSpaceOnUse" gradientTransform="translate(219.299 30.868) scale(1.06245 1.06245)">
<stop stop-color="#CCCCCC"/>
<stop offset="1"/>
</radialGradient>
<clipPath id="clip0_2_131">
<rect width="376" height="402.597" fill="white" transform="translate(0 189.221)"/>
</clipPath>
<clipPath id="clip1_2_131">
<rect width="250.667" height="45.9856" fill="white" transform="translate(62.5147 367.372)"/>
</clipPath>
<clipPath id="clip2_2_131">
<rect width="249.803" height="45.6764" fill="white" transform="translate(62.9465 367.527)"/>
</clipPath>
<clipPath id="clip3_2_131">
<rect width="249.803" height="45.6764" fill="white" transform="translate(62.9465 367.527)"/>
</clipPath>
<clipPath id="clip4_2_131">
<rect width="249.803" height="45.6764" fill="white" transform="translate(62.9465 367.527)"/>
</clipPath>
<clipPath id="clip5_2_131">
<rect width="189.763" height="33.051" fill="white" transform="translate(62.9465 373.839)"/>
</clipPath>
<clipPath id="clip6_2_131">
<rect width="189.763" height="33.051" fill="white" transform="translate(62.9465 373.839)"/>
</clipPath>
<clipPath id="clip7_2_131">
<rect width="189.763" height="33.051" fill="white" transform="translate(62.9465 373.839)"/>
</clipPath>
<clipPath id="clip8_2_131">
<rect width="189.763" height="33.051" fill="white" transform="translate(62.9465 373.839)"/>
</clipPath>
<clipPath id="clip9_2_131">
<rect width="52.7529" height="45.6764" fill="white" transform="translate(259.997 367.527)"/>
</clipPath>
<clipPath id="clip10_2_131">
<rect width="52.7529" height="45.6764" fill="white" transform="translate(259.997 367.527)"/>
</clipPath>
</defs>
</svg>
