<svg xmlns="http://www.w3.org/2000/svg" version="1.1" xmlns:xlink="http://www.w3.org/1999/xlink" xmlns:svgjs="http://svgjs.dev/svgjs" width="2000" height="343" viewBox="0 0 2000 343"><g transform="matrix(1,0,0,1,-1.2121212121213603,-1.152943802347039)"><svg viewBox="0 0 396 68" data-background-color="#182524" preserveAspectRatio="xMidYMid meet" height="343" width="2000" xmlns="http://www.w3.org/2000/svg" xmlns:xlink="http://www.w3.org/1999/xlink"><g id="tight-bounds" transform="matrix(1,0,0,1,0.24000000000003752,0.22857194915334844)"><svg viewBox="0 0 395.5199999999999 67.54285610169329" height="67.54285610169329" width="395.5199999999999"><g><svg viewBox="0 0 395.5199999999999 67.54285610169329" height="67.54285610169329" width="395.5199999999999"><g><svg viewBox="0 0 520.6601201527205 88.91300458476321" height="67.54285610169329" width="395.5199999999999"><g transform="matrix(1,0,0,1,0,12.288266190803022)"><svg viewBox="0 0 395.52 64.33647220315717" height="64.33647220315717" width="395.52"><g id="textblocktransform"><svg viewBox="0 0 395.52 64.33647220315717" height="64.33647220315717" width="395.52" id="textblock"><g><svg viewBox="0 0 395.52 64.33647220315717" height="64.33647220315717" width="395.52"><g transform="matrix(1,0,0,1,0,0)"><svg width="395.52" viewBox="0.9 -35.05 218.53 35.55" height="64.33647220315717" data-palette-color="#ffffff"><g class="wordmark-text-0" data-fill-palette-color="primary" id="text-0"><path d="M5.85 0L5.85-1.5 24.25-1.5 13.65-30.65 2.5 0 0.9 0 13.65-35.05 26.4 0 5.85 0ZM33.75-35L33.75 0 32.25 0 32.25-35 33.75-35ZM44.9-3.05Q42.2-6.6 42.2-14.5 42.2-22.4 44.9-25.95 47.59-29.5 53.84-29.5 60.09-29.5 62.84-26.05L62.84-26.05 61.75-25.05Q59.55-28 53.84-28L53.84-28Q51.34-28 49.65-27.48 47.95-26.95 46.52-25.53 45.09-24.1 44.4-21.38 43.7-18.65 43.7-14.5 43.7-10.35 44.4-7.63 45.09-4.9 46.52-3.48 47.95-2.05 49.65-1.53 51.34-1 53.84-1L53.84-1Q59.55-1 61.75-3.95L61.75-3.95 62.84-2.95Q60.09 0.5 53.84 0.5 47.59 0.5 44.9-3.05ZM72.94 0L72.94-1.5 89.24-1.5 78.99-25.65 68.09 0 66.49 0 78.99-29.5 91.49 0 72.94 0ZM100.99 0L100.99 0 97.19 0 97.19-29 100.99-29Q108.39-29 112.79-25.1 117.19-21.2 117.19-14.5 117.19-7.8 112.79-3.9 108.39 0 100.99 0ZM98.69-1.5L100.99-1.5Q107.74-1.5 111.72-4.95 115.69-8.4 115.69-14.5 115.69-20.6 111.72-24.05 107.74-27.5 100.99-27.5L100.99-27.5 98.69-27.5 98.69-1.5ZM143.14-3.95L144.24-2.95Q141.49 0.5 135.24 0.5 128.99 0.5 126.29-3.05 123.59-6.6 123.59-14.5 123.59-22.4 126.29-25.95 128.99-29.5 135.24-29.5L135.24-29.5Q142.49-29.5 145.09-24.75L145.09-24.75 132.84-14.5 130.49-14.5 143.14-25.05Q140.94-28 135.24-28L135.24-28Q132.74-28 131.04-27.48 129.34-26.95 127.91-25.53 126.49-24.1 125.79-21.38 125.09-18.65 125.09-14.5 125.09-10.35 125.79-7.63 126.49-4.9 127.91-3.48 129.34-2.05 131.04-1.53 132.74-1 135.24-1L135.24-1Q140.94-1 143.14-3.95L143.14-3.95ZM156.94-0.05L156.94-1.5 176.24-1.5 176.24-26.9 164.99-15.65 153.74-26.9 153.74 0 152.24-0.05 152.24-29 153.74-29 164.99-17.75 176.24-29 177.74-29 177.74 0 156.94-0.05ZM187.23 0L187.23-29 188.73-29 188.73 0 187.23 0ZM200.88 0L200.88-1.5 217.18-1.5 206.93-25.65 196.03 0 194.43 0 206.93-29.5 219.43 0 200.88 0Z" fill="#ffffff" data-fill-palette-color="primary"></path></g></svg></g></svg></g></svg></g></svg></g><g transform="matrix(1,0,0,1,410.70829701183254,0)"><svg viewBox="0 0 109.95182314088798 88.91300458476321" height="88.91300458476321" width="109.95182314088798"><g><svg xmlns="http://www.w3.org/2000/svg" xmlns:xlink="http://www.w3.org/1999/xlink" version="1.1" x="0" y="0" viewBox="4.9995 13.61025 90.00087502340824 72.77958641336241" enable-background="new 0 0 100 100" xml:space="preserve" height="88.91300458476321" width="109.95182314088798" class="icon-icon-0" data-fill-palette-color="accent" id="icon-0"><g fill="#ffffff" data-fill-palette-color="accent"><path fill="#ffffff" d="M71.62 59.237l-7.172 3.973c-4.41 2.441-9.407 3.734-14.45 3.734-5.039 0-10.035-1.292-14.449-3.734l-8.796-4.873c0.11 4.083-0.062 8.421-1.726 11.882-0.459 0.945-1.377 1.8-1.36 2.936 0.02 1.576 1.812 1.842 3.102 1.602 0 0 7.604-1.458 18.126 8.854 1.045 1.025 2.076 1.989 3.492 2.49 2.771 0.983 4.831-0.715 6.735-2.508 1.296-1.219 2.741-2.277 4.193-3.306 3.486-2.463 7.91-5.56 12.351-5.635 0 0 5.729 1.25 2.396-4.062C74.062 70.59 72.535 65.669 71.62 59.237" data-fill-palette-color="accent"></path><polygon fill="#ffffff" points="14.998,55.277 13.331,65.277 13.331,78.611 19.998,78.611 19.998,65.277 18.331,55.277    18.331,46.051 14.998,44.204  " data-fill-palette-color="accent"></polygon><path fill="#ffffff" d="M93.499 34.391L61.22 16.512c-6.986-3.869-15.456-3.869-22.438 0L6.498 34.391c-1.998 1.108-1.998 3.996 0 5.106l8.5 4.706v-7.259h38.334v3.333H18.331v5.773l20.45 11.327c6.982 3.867 15.452 3.867 22.438 0l32.279-17.879C95.501 38.387 95.501 35.5 93.499 34.391" data-fill-palette-color="accent"></path></g></svg></g></svg></g></svg></g></svg></g><defs></defs></svg><rect width="395.5199999999999" height="67.54285610169329" fill="none" stroke="none" visibility="hidden"></rect></g></svg></g></svg>
